PathFileType	3	(X/Y/Z)	D:\Vicon Setup\UG\Test1\New Session\NewSession10.trc
DataRate	CameraRate	NumFrames	NumMarkers	Units	OrigDataRate	OrigDataStartFrame	OrigNumFrames
100.0	100.0	12	27	mm	100.0	570	353	
Frame#	Time	Sternum			LShoulder			RShoulder			LASIS			RASIS			RPSIS			LPSIS			RKneeLateral			RKneeMedial			RFibulaHead			RMidShank			RAnkleLateral			RAnkleMedial			RHeel			RMT5			RMT2			RToe			LKneeLateral			LKneeMedial			LFibulaHead			LMidShank			LAnkleLateral			LAnkleMedial			LHeel			LMT5			LMT2			LToe			
		X1	Y1	Z1	X2	Y2	Z2	X3	Y3	Z3	X4	Y4	Z4	X5	Y5	Z5	X6	Y6	Z6	X7	Y7	Z7	X8	Y8	Z8	X9	Y9	Z9	X10	Y10	Z10	X11	Y11	Z11	X12	Y12	Z12	X13	Y13	Z13	X14	Y14	Z14	X15	Y15	Z15	X16	Y16	Z16	X17	Y17	Z17	X18	Y18	Z18	X19	Y19	Z19	X20	Y20	Z20	X21	Y21	Z21	X22	Y22	Z22	X23	Y23	Z23	X24	Y24	Z24	X25	Y25	Z25	X26	Y26	Z26	X27	Y27	Z27	
570	5.69	-217.2173	1338.7897	-1428.7966	-20.674034	1417.8148	-1498.0498	-385.04626	1382.9326	-1533.0422	-83.252403	968.39502	-1481.006	-340.27429	979.68726	-1501.4261	-261.20297	992.50311	-1670.2764	-131.33134	999.00873	-1664.0544	-360.80191	515.8075	-1422.4197	-233.8271	508.51678	-1371.17	-366.41275	442.34229	-1388.4094	-298.61288	311.70334	-1275.2711	-349.44312	100.0864	-1234.2848	-285.88782	158.97803	-1196.7362	-277.793	52.334328	-1267.0894	-415.12225	111.93652	-1081.842	-353.71362	154.91312	-1090.3407	-355.60931	174.0361	-1040.0359	-74.033554	509.77075	-1654.2256	-205.10352	497.61597	-1644.069	-73.945946	453.9574	-1688.042	-159.02792	299.18301	-1705.8849	-114.2327	117.70305	-1825.4851	-195.70525	130.36127	-1781.4141	-171.88293	95.357239	-1902.1207	-70.476189	40.867275	-1709.3489	-133.42442	56.763798	-1686.0706	-134.28828	37.433018	-1628.895
571	5.7	-218.43695	1336.1803	-1413.8226	-22.041672	1415.4133	-1483.3961	-386.44095	1380.2216	-1517.876	-83.6623	965.84949	-1466.4622	-341.0433	976.39966	-1485.7061	-263.0835	989.50092	-1655.1454	-133.15677	996.29718	-1649.3716	-361.00989	513.54956	-1405.5394	-232.56442	506.72476	-1356.8473	-366.20563	440.25314	-1371.3717	-297.98645	310.45056	-1257.7094	-348.46582	98.96196	-1213.9749	-284.49475	158.61523	-1178.8131	-277.68622	50.552364	-1247.4257	-410.25293	113.58926	-1059.917	-349.5874	156.78577	-1071.2888	-350.19891	177.4351	-1021.5962	-73.748795	508.94666	-1644.3583	-204.59808	496.28595	-1633.6152	-73.637581	453.74579	-1679.1583	-158.4191	299.15442	-1699.9537	-113.58183	120.08566	-1823.5657	-195.07489	131.9711	-1779.094	-171.21133	99.130173	-1900.3674	-70.225586	40.703987	-1709.071	-132.98808	56.382206	-1685.3671	-134.28352	37.231018	-1628.9764
572	5.71	-219.80429	1333.7949	-1398.6943	-23.527864	1413.1317	-1468.5421	-387.98358	1377.6816	-1502.6359	-84.063568	963.40576	-1451.7805	-341.77115	973.42285	-1469.8806	-265.00327	986.71112	-1639.8938	-135.06442	993.74207	-1634.5096	-361.59012	511.8205	-1387.5159	-232.04332	505.6011	-1340.6552	-366.29297	438.33072	-1353.8679	-296.96655	308.26526	-1241.4944	-346.69388	96.645439	-1197.4774	-282.20932	156.52605	-1164.1193	-277.08478	48.392475	-1232.3292	-404.19647	112.3625	-1041.7778	-344.27271	155.74263	-1055.5934	-343.47781	177.26175	-1006.3661	-73.345413	508.00787	-1633.6682	-203.9106	494.68661	-1622.1993	-73.194504	453.45737	-1669.4976	-157.64777	299.1311	-1693.4607	-112.75484	122.75311	-1821.3275	-194.2244	133.78262	-1776.4371	-170.40819	103.4221	-1898.3007	-69.913528	40.51041	-1708.7234	-132.49507	55.932312	-1684.6085	-134.29234	37.071411	-1629.0702
573	5.72	-221.33957	1331.6357	-1383.4187	-25.149921	1411.0129	-1453.4786	-389.6637	1375.3638	-1487.3301	-84.524124	961.0683	-1436.8898	-342.49139	970.89838	-1453.895	-266.9158	984.19031	-1624.4572	-137.00389	991.375	-1619.4073	-362.39087	510.63864	-1368.5679	-232.15323	504.82791	-1322.9635	-366.5701	436.68152	-1335.9264	-295.43631	305.2984	-1226.6244	-344.3399	93.514404	-1184.6255	-279.08011	152.8494	-1152.3359	-276.18268	46.528896	-1221.5674	-397.32205	108.34007	-1027.3723	-337.87216	151.71852	-1042.8717	-335.62158	173.27444	-993.87988	-72.857704	506.91162	-1622.0795	-203.08125	492.81122	-1609.8069	-72.626503	453.03748	-1658.981	-156.75201	299.10721	-1686.3618	-111.79507	125.7056	-1818.6981	-193.1908	135.7975	-1773.379	-169.50069	108.27936	-1895.8464	-69.542664	40.263432	-1708.3207	-131.95517	55.442612	-1683.746	-134.32156	36.950989	-1629.1721
574	5.73	-223.05461	1329.7222	-1368.0056	-26.922007	1409.1086	-1438.2292	-391.47684	1373.3053	-1471.9567	-85.099709	958.84741	-1421.7148	-343.23935	968.93146	-1437.6907	-268.79117	981.98944	-1608.7654	-138.92638	989.19849	-1604.0059	-363.33661	509.99005	-1348.9261	-232.76595	504.13318	-1304.3503	-366.94067	435.3486	-1317.6641	-293.39438	301.83069	-1212.9825	-341.71994	90.097031	-1174.8702	-275.3226	147.98749	-1142.8237	-275.10233	45.622227	-1214.3486	-390.13831	101.83165	-1016.2856	-330.72253	144.97598	-1032.4849	-327.07114	165.64342	-983.45477	-72.313667	505.64407	-1609.5026	-202.13676	490.70593	-1596.4233	-71.937973	452.45087	-1647.4952	-155.77028	299.10272	-1678.5645	-110.76955	128.98178	-1815.5706	-192.03845	138.02913	-1769.8071	-168.54878	113.79676	-1892.8691	-69.121719	39.944885	-1707.8757	-131.40244	54.929977	-1682.7244	-134.36488	36.855198	-1629.2671
575	5.74	-224.94603	1328.0966	-1352.4679	-28.849594	1407.4724	-1422.8452	-393.43063	1371.5303	-1456.4993	-85.824257	956.77954	-1406.1995	-344.04544	967.58453	-1421.2301	-270.62936	980.16089	-1592.7733	-140.79926	987.20276	-1588.2688	-364.3797	509.7742	-1328.9196	-233.73132	503.41998	-1285.4211	-367.34454	434.32132	-1299.3083	-291.00415	298.23383	-1200.3093	-339.18903	86.885201	-1167.2566	-271.33118	142.55573	-1134.6865	-273.90723	45.951233	-1209.4302	-383.25101	93.39727	-1007.7437	-323.44531	136.18095	-1023.6187	-318.5632	155.07513	-974.2793	-71.720383	504.23508	-1595.8239	-201.069	488.45523	-1582.0027	-71.114151	451.71121	-1634.9049	-154.71732	299.16714	-1669.9111	-109.75297	132.66022	-1811.791	-190.8287	140.50165	-1765.5466	-167.63721	120.11683	-1889.1562	-68.668747	39.567856	-1707.3811	-130.89247	54.391193	-1681.4961	-134.40584	36.764034	-1629.3387
576	5.75	-226.99202	1326.8228	-1336.8203	-30.920223	1406.1599	-1407.3925	-395.52457	1370.0537	-1440.9387	-86.71489	954.9339	-1390.3242	-344.93323	966.89044	-1404.5101	-272.45908	978.76398	-1576.4829	-142.61507	985.38556	-1572.1918	-365.46341	509.84128	-1309.0372	-234.9001	502.76773	-1266.7382	-367.79657	433.59024	-1281.1666	-288.58902	294.90237	-1188.2579	-337.06937	84.227821	-1160.67	-267.60611	137.24666	-1127.0205	-272.69894	47.351723	-1205.5925	-377.27124	83.754578	-1000.8515	-316.83759	126.28676	-1015.4835	-310.978	142.64784	-965.58862	-71.051056	502.75577	-1580.8999	-199.82784	486.15836	-1566.4484	-70.113029	450.89609	-1621.0645	-153.56154	299.36658	-1660.1692	-108.80312	136.8342	-1807.1433	-189.59146	143.24564	-1760.363	-166.85497	127.40332	-1884.4109	-68.235947	39.193932	-1706.8016	-130.49019	53.819267	-1680.0161	-134.42639	36.665272	-1629.3782
577	5.76	-229.15353	1325.9799	-1321.0823	-33.096798	1405.2316	-1391.9297	-397.73315	1368.8906	-1425.2678	-87.783989	953.40137	-1374.1182	-345.91949	966.86945	-1387.5692	-274.31989	977.86676	-1559.9436	-144.38802	983.77039	-1555.8065	-366.54181	510.10193	-1289.8467	-236.15163	502.33911	-1248.8574	-368.39984	433.20456	-1263.516	-286.54919	292.15552	-1176.542	-335.59512	82.309563	-1154.344	-264.59256	132.62708	-1119.2947	-271.66281	49.403927	-1202.129	-372.6709	73.583435	-994.91754	-311.63504	116.23119	-1007.5975	-305.05737	129.44791	-956.93494	-70.236092	501.29144	-1564.5591	-198.3338	483.89679	-1549.61	-68.87413	450.12729	-1605.8234	-152.22365	299.75586	-1649.0437	-107.93317	141.58307	-1801.3453	-188.314	146.29433	-1753.9774	-166.26588	135.80675	-1878.2535	-67.940506	38.932529	-1706.0649	-130.24936	53.224529	-1678.2349	-134.41374	36.564774	-1629.3823
578	5.77	-231.37787	1325.6418	-1305.2783	-35.323837	1404.7532	-1376.494	-400.01868	1368.0693	-1409.4913	-89.048737	952.27179	-1357.6638	-347.0126	967.5387	-1370.4875	-276.23663	977.53992	-1543.2311	-146.13632	982.41632	-1539.182	-367.63406	510.61304	-1271.7484	-237.41409	502.27057	-1232.3323	-369.29303	433.27811	-1246.4738	-285.21521	290.15347	-1165.0658	-334.84103	81.145424	-1148.2192	-262.50003	128.98351	-1111.5771	-270.98087	51.62571	-1198.9404	-369.64676	63.480087	-989.63037	-308.25412	106.71571	-999.96484	-301.1369	116.37374	-948.39655	-69.176117	499.89175	-1546.6194	-196.50714	481.69254	-1531.2892	-67.345924	449.51053	-1589.0236	-150.60577	300.3508	-1636.2228	-107.09642	146.9565	-1794.0695	-186.94641	149.672	-1746.0969	-165.88261	145.44624	-1870.2526	-67.939598	38.927792	-1705.0465	-130.18871	52.646744	-1676.0962	-134.36484	36.476494	-1629.3363
579	5.78	-233.60663	1325.8544	-1289.4392	-37.546764	1404.7877	-1361.1039	-402.34714	1367.6343	-1393.6238	-90.530891	951.6084	-1341.0901	-348.21271	968.90082	-1353.3827	-278.19473	977.84344	-1526.431	-147.85921	981.41217	-1522.4209	-368.85565	511.54935	-1254.733	-238.68622	502.62033	-1217.5681	-370.55457	433.91653	-1229.9762	-284.71548	288.88904	-1153.9221	-334.65997	80.612328	-1142.7534	-261.2485	126.33276	-1104.395	-270.71484	53.609222	-1196.2491	-368.0726	54.113697	-984.98932	-306.6188	98.231682	-992.95361	-299.00784	104.19917	-940.4762	-67.787827	498.5267	-1526.9253	-194.30574	479.47327	-1511.2521	-65.514931	449.06818	-1570.5051	-148.64159	301.11584	-1621.4557	-106.20481	152.97194	-1784.9888	-185.42587	153.37888	-1736.4536	-165.65134	156.41113	-1859.9788	-68.315857	39.320839	-1703.574	-130.27853	52.155056	-1673.5291	-134.28859	36.3922	-1629.184
580	5.79	-235.78531	1326.6179	-1273.5984	-39.728119	1405.3809	-1345.7706	-404.68488	1367.6331	-1377.6893	-92.245537	951.42676	-1324.5521	-349.51923	970.91486	-1336.3915	-280.12732	978.80597	-1509.6345	-149.52684	980.84528	-1505.6489	-370.37085	513.05682	-1238.3739	-240.04903	503.42572	-1204.5667	-372.1358	435.11108	-1213.9163	-284.94553	288.24756	-1143.2913	-334.74323	80.544975	-1138.3831	-260.55661	124.55064	-1098.3478	-270.78232	55.121723	-1194.2524	-367.56085	46.250298	-981.08386	-306.16837	91.129837	-986.95837	-297.98657	93.584221	-933.71179	-66.06118	497.08914	-1505.4034	-191.75757	477.0722	-1489.2516	-63.431053	448.71271	-1550.1414	-146.3425	301.98206	-1604.6283	-105.16711	159.6291	-1773.8358	-183.71156	157.3965	-1724.86	-165.45374	168.75888	-1847.0608	-68.958176	40.209644	-1701.4834	-130.44495	51.844311	-1670.4282	-134.19894	36.252171	-1628.8027
581	5.8	-237.86795	1327.8833	-1257.7903	-41.848751	1406.5404	-1330.5111	-406.99258	1368.0886	-1361.7115	-94.186028	951.68658	-1308.2045	-350.94678	973.46899	-1319.6436	-281.92981	980.39532	-1492.9408	-151.09315	980.75586	-1489.0011	-372.27258	515.09467	-1222.1602	-241.62573	504.79578	-1192.7843	-373.87778	436.68494	-1198.3434	-285.63947	288.06506	-1133.3593	-334.7937	80.805672	-1135.1832	-260.0834	123.45525	-1093.7495	-271.02356	56.132164	-1192.9539	-367.63293	40.452038	-977.93018	-306.13589	85.537476	-982.14838	-297.25534	84.888275	-928.35321	-64.084053	495.45511	-1482.0989	-188.97165	474.28607	-1465.0746	-61.222412	448.28693	-1527.8804	-143.81194	302.89774	-1585.7917	-103.91733	166.93117	-1760.4463	-181.80534	161.72441	-1711.2576	-165.13445	182.48401	-1831.2225	-69.590767	41.683731	-1698.6871	-130.58128	51.838829	-1666.6453	-134.09517	35.933857	-1628.0103
